<svg width="16" height="16" viewBox="0 0 16 16" fill="none" xmlns="http://www.w3.org/2000/svg">
<path d="M13.0808 10.522C12.6899 10.522 12.3185 10.6751 12.0383 10.952C11.7581 11.2322 11.6017 11.5971 11.6017 11.988C11.6017 12.379 11.7548 12.7439 12.0383 13.0241C12.3217 13.301 12.6899 13.4541 13.0808 13.4541C13.8823 13.4541 14.5339 12.796 14.5339 11.988C14.5339 11.1801 13.8823 10.522 13.0808 10.522ZM13.0808 12.8025C12.6312 12.8025 12.2533 12.4311 12.2533 11.988C12.2533 11.545 12.6312 11.1735 13.0808 11.1735C13.5239 11.1735 13.8823 11.5384 13.8823 11.988C13.8823 12.4377 13.5239 12.8025 13.0808 12.8025ZM13.4588 5.63822C13.4001 5.58283 13.3219 5.55351 13.2405 5.55351H11.5691C11.3899 5.55351 11.2433 5.70012 11.2433 5.87931V8.55087C11.2433 8.73006 11.3899 8.87667 11.5691 8.87667H14.2211C14.4003 8.87667 14.5469 8.73006 14.5469 8.55087V6.76223C14.5469 6.671 14.5078 6.58304 14.4394 6.52114L13.4588 5.63822ZM13.8953 8.22507H11.8949V6.20185H13.1134L13.8953 6.90558V8.22507ZM5.12482 10.522C4.73386 10.522 4.36245 10.6751 4.08226 10.952C3.80208 11.2322 3.64569 11.5971 3.64569 11.988C3.64569 12.379 3.79882 12.7439 4.08226 13.0241C4.36571 13.301 4.73386 13.4541 5.12482 13.4541C5.92629 13.4541 6.57789 12.796 6.57789 11.988C6.57789 11.1801 5.92629 10.522 5.12482 10.522ZM5.12482 12.8025C4.67522 12.8025 4.29729 12.4311 4.29729 11.988C4.29729 11.545 4.67522 11.1735 5.12482 11.1735C5.56791 11.1735 5.92629 11.5384 5.92629 11.988C5.92629 12.4377 5.56791 12.8025 5.12482 12.8025ZM2.95174 10.9227H2.29688V10.0561C2.29688 9.87687 2.15027 9.73026 1.97109 9.73026C1.7919 9.73026 1.64529 9.87687 1.64529 10.0561V11.2485C1.64529 11.4277 1.7919 11.5743 1.97109 11.5743H2.95174C3.13093 11.5743 3.27754 11.4277 3.27754 11.2485C3.27754 11.0693 3.13093 10.9227 2.95174 10.9227ZM4.60354 9.14708C4.60354 8.96789 4.45693 8.82128 4.27774 8.82128H0.325799C0.14661 8.82128 0 8.96789 0 9.14708C0 9.32627 0.14661 9.47288 0.325799 9.47288H4.27774C4.45693 9.47288 4.60354 9.32953 4.60354 9.14708ZM0.987172 7.97094L4.93912 7.99375C5.11831 7.99375 5.26491 7.8504 5.26817 7.67121C5.27143 7.48876 5.12482 7.34215 4.94563 7.34215L0.993688 7.31934C0.99043 7.31934 0.99043 7.31934 0.99043 7.31934C0.81124 7.31934 0.66463 7.4627 0.66463 7.64189C0.661372 7.82433 0.807982 7.97094 0.987172 7.97094ZM1.6518 6.49181H5.60375C5.78294 6.49181 5.92955 6.3452 5.92955 6.16602C5.92955 5.98683 5.78294 5.84022 5.60375 5.84022H1.6518C1.47261 5.84022 1.326 5.98683 1.326 6.16602C1.326 6.3452 1.47261 6.49181 1.6518 6.49181ZM15.8795 6.05199L13.5467 4.12C13.4881 4.07113 13.4164 4.04506 13.3382 4.04506H10.595V2.87219C10.595 2.693 10.4484 2.54639 10.2692 2.54639H1.97109C1.7919 2.54639 1.64529 2.693 1.64529 2.87219V5.25704C1.64529 5.43623 1.7919 5.58284 1.97109 5.58284C2.15027 5.58284 2.29688 5.43623 2.29688 5.25704V3.19799H9.94665V10.9227H7.2751C7.09591 10.9227 6.9493 11.0693 6.9493 11.2485C6.9493 11.4277 7.09591 11.5743 7.2751 11.5743H11.2531C11.4323 11.5743 11.5789 11.4277 11.5789 11.2485C11.5789 11.0693 11.4323 10.9227 11.2531 10.9227H10.5982V4.69666H13.2242L15.3484 6.45598L15.3256 10.9162H14.9868C14.8076 10.9162 14.661 11.0628 14.661 11.242C14.661 11.4212 14.8076 11.5678 14.9868 11.5678H15.6481C15.8273 11.5678 15.9739 11.4244 15.9739 11.2452L16 6.30611C15.9967 6.20837 15.9544 6.11389 15.8795 6.05199Z" fill="white"/>
</svg> 
