<svg width="34" height="34" viewBox="0 0 34 34" fill="none" xmlns="http://www.w3.org/2000/svg">
<g clip-path="url(#clip0_1_50)">
<path d="M31.2538 4.82945C29.4734 3.04908 27.1164 2.07601 24.6009 2.07601C22.0853 2.07601 19.7211 3.05629 17.9407 4.83665L17.0109 5.76648L16.0666 4.82224C14.2863 3.04187 11.9149 2.05438 9.39927 2.05438C6.89091 2.05438 4.5267 3.03466 2.75354 4.80782C0.973174 6.58819 -0.00710745 8.9524 0.000100504 11.468C0.000100504 13.9836 0.98759 16.3406 2.76796 18.1209L16.3045 31.6575C16.4919 31.8449 16.7442 31.9458 16.9893 31.9458C17.2343 31.9458 17.4866 31.8521 17.674 31.6647L31.2394 18.1497C33.0197 16.3694 34 14.0052 34 11.4896C34.0072 8.97402 33.0342 6.60981 31.2538 4.82945ZM29.8699 16.773L16.9893 29.6032L4.13747 16.7514C2.72471 15.3386 1.94625 13.4646 1.94625 11.468C1.94625 9.47137 2.7175 7.5973 4.13026 6.19175C5.53581 4.7862 7.40988 4.00774 9.39927 4.00774C11.3959 4.00774 13.2772 4.7862 14.6899 6.19896L16.3189 7.82796C16.7009 8.20998 17.3136 8.20998 17.6956 7.82796L19.3102 6.21337C20.723 4.80061 22.6042 4.02215 24.5936 4.02215C26.583 4.02215 28.4571 4.80061 29.8699 6.20616C31.2826 7.61892 32.0539 9.49299 32.0539 11.4896C32.0611 13.4862 31.2826 15.3603 29.8699 16.773Z" fill="#C4C4C4"/>
</g>
<defs>
<clipPath id="clip0_1_50">
<rect width="34" height="34" fill="white"/>
</clipPath>
</defs>
</svg>
