<svg width="189" height="22" viewBox="0 0 189 22" fill="none" xmlns="http://www.w3.org/2000/svg">
<g clip-path="url(#clip0_1_2)">
<path d="M9.26943 22C5.8586 22 2.84904 21.0733 0 19.4615L1.12357 17.3663C3.77198 18.7363 6.58089 19.663 9.14904 19.663C12.3191 19.663 16.8134 18.6154 16.8134 15.5934C16.8134 13.2161 13.7637 12.5714 10.9949 12.1685C10.1924 12.0879 9.38981 11.967 8.70764 11.8462C4.49427 11.2821 0.0401274 10.033 0.0401274 6.08425C0.0401274 1.32967 5.81847 0 9.87134 0C13.242 0 16.2115 0.805861 18.9 2.82051L17.6159 4.67399C15.3287 3.06227 12.7204 2.337 9.83121 2.337C5.61784 2.337 2.80892 3.82784 2.80892 6.04396C2.80892 7.97802 5.77834 8.62271 7.82484 9.10623C9.99172 9.54945 12.4796 9.79121 14.2051 10.2747C17.014 10.9194 19.6624 12.2491 19.6624 15.5934C19.6624 20.7509 13.0414 22 9.26943 22Z" fill="black"/>
<path d="M34.1083 2.6998V21.7584H31.179V2.6998H21.5083L21.4681 0.403101H43.6987V2.6998H34.1083Z" fill="black"/>
<path d="M89.2433 22C85.8325 22 82.8229 21.0733 79.9739 19.4615L81.0974 17.3663C83.7459 18.7363 86.5548 19.663 89.1229 19.663C92.293 19.663 96.7872 18.6154 96.7872 15.5934C96.7872 13.2161 93.7376 12.5714 90.9688 12.1685C90.1662 12.0879 89.3637 11.967 88.6815 11.8462C84.5083 11.2821 80.014 10.033 80.014 6.08425C79.9739 1.32967 85.7923 0 89.8051 0C93.1758 0 96.1452 0.805861 98.8337 2.82051L97.5497 4.67399C95.2624 3.06227 92.6541 2.337 89.765 2.337C85.5516 2.337 82.7427 3.82784 82.7427 6.04396C82.7427 7.97802 85.7121 8.62271 87.7586 9.10623C89.9255 9.54945 92.4134 9.79121 94.1388 10.2747C96.9076 10.9597 99.556 12.3297 99.556 15.6337C99.6363 20.7509 92.9751 22 89.2433 22Z" fill="black"/>
<path d="M114.082 2.6998V21.7584H111.153V2.6998H101.482L101.402 0.403101H123.632V2.6998H114.082Z" fill="black"/>
<path d="M137.155 13.6192V21.7584H134.226V13.458L125.358 0.403101H128.568L135.871 11.2016L143.094 0.403101H146.144L137.155 13.6192Z" fill="black"/>
<path d="M149.113 21.7584V0.44342H151.962V19.4214H167.331V21.7584H149.113Z" fill="black"/>
<path d="M170.822 21.7584L170.862 0.44342H188.599V2.69983H173.752V10.0735H185.95V12.2896H173.752V19.4617H189V21.7584H170.822Z" fill="black"/>
<path d="M66.2102 7.33341C65.3274 6.44696 64.0032 6.28579 63 6.76931C63.5217 5.72169 63.3211 4.43231 62.4383 3.54586L59.5892 0.685059L56.7402 3.54586C55.8574 4.43231 55.6969 5.76198 56.1784 6.76931C55.1351 6.2455 53.851 6.44696 52.9682 7.33341L50.1191 10.1942L52.9682 13.055C53.851 13.9415 55.1752 14.1026 56.1784 13.6191C55.6567 14.6667 55.8574 15.9561 56.7402 16.8426L59.5892 19.7034L62.4383 16.8426C63.3211 15.9561 63.4816 14.6265 63 13.6191C64.0434 14.1429 65.3274 13.9415 66.2102 13.055L69.0593 10.1942L66.2102 7.33341ZM57.4625 12.2895C58.1847 11.0001 58.1847 9.34806 57.4625 8.05868C58.7465 8.78396 60.3918 8.78396 61.6758 8.05868C60.9535 9.34806 60.9535 11.0001 61.6758 12.2895C60.3918 11.5642 58.7867 11.5642 57.4625 12.2895Z" fill="#E7462E"/>
</g>
<defs>
<clipPath id="clip0_1_2">
<rect width="189" height="22" fill="white"/>
</clipPath>
</defs>
</svg>
