<svg width="33" height="33" viewBox="0 0 33 33" fill="none" xmlns="http://www.w3.org/2000/svg">
<g clip-path="url(#clip0_1_53)">
<path d="M9.90665 21.7278H28.0897C30.1515 21.7278 31.8334 20.0458 31.8334 17.984V10.3337C31.8334 10.3269 31.8334 10.3134 31.8334 10.3066C31.8334 10.2862 31.8334 10.2727 31.8334 10.2523C31.8334 10.2388 31.8334 10.2252 31.8267 10.2116C31.8267 10.1981 31.8199 10.1777 31.8199 10.1642C31.8199 10.1506 31.8131 10.137 31.8131 10.1235C31.8063 10.1099 31.8063 10.0963 31.7995 10.076C31.7928 10.0624 31.7928 10.0489 31.786 10.0353C31.7792 10.0217 31.7792 10.0082 31.7724 9.99461C31.7656 9.98105 31.7588 9.96749 31.7521 9.94714C31.7453 9.93357 31.7385 9.92001 31.7317 9.91323C31.7249 9.89966 31.7181 9.8861 31.7114 9.87253C31.7046 9.85897 31.6978 9.85219 31.691 9.83862C31.6842 9.82506 31.6707 9.81149 31.6639 9.79793C31.6571 9.78437 31.6503 9.77758 31.6368 9.76402C31.63 9.75045 31.6164 9.74367 31.6096 9.73011C31.6029 9.71654 31.5893 9.70976 31.5825 9.6962C31.5757 9.68263 31.5622 9.67585 31.5554 9.66907C31.5418 9.6555 31.535 9.64872 31.5215 9.63516C31.5079 9.62838 31.5011 9.61481 31.4876 9.60803C31.474 9.60125 31.4604 9.58768 31.4469 9.5809C31.4333 9.57412 31.4265 9.56734 31.413 9.56055C31.3994 9.55377 31.3858 9.54699 31.3723 9.53343C31.3587 9.52664 31.3451 9.51986 31.3316 9.51308C31.318 9.5063 31.3044 9.49951 31.2909 9.49273C31.2773 9.48595 31.2637 9.47917 31.2502 9.47239C31.2366 9.4656 31.2231 9.4656 31.2095 9.45882C31.1959 9.45204 31.1756 9.44526 31.162 9.44526C31.1484 9.44526 31.1349 9.43847 31.1281 9.43847C31.1078 9.43169 31.0942 9.43169 31.0738 9.43169C31.0671 9.43169 31.0603 9.42491 31.0467 9.42491L8.00086 6.24407V3.02931C8.00086 2.9954 8.00086 2.96149 7.99407 2.93436C7.99407 2.92758 7.99407 2.9208 7.98729 2.90723C7.98729 2.88689 7.98051 2.86654 7.98051 2.84619C7.97373 2.82585 7.97373 2.81228 7.96694 2.79194C7.96694 2.77837 7.96016 2.77159 7.96016 2.75802C7.95338 2.73768 7.9466 2.71733 7.93982 2.69699C7.93982 2.6902 7.93303 2.67664 7.93303 2.66986C7.92625 2.64951 7.91947 2.63595 7.90591 2.6156C7.89912 2.60882 7.89912 2.59525 7.89234 2.58847C7.88556 2.57491 7.87878 2.56134 7.86521 2.54778C7.85843 2.53421 7.85165 2.52743 7.84487 2.51387C7.83808 2.5003 7.8313 2.49352 7.82452 2.47996C7.81774 2.46639 7.80417 2.45283 7.79739 2.43926C7.79061 2.43248 7.78383 2.4257 7.77704 2.41892C7.76348 2.40535 7.74991 2.39179 7.73635 2.37822C7.72957 2.37144 7.72279 2.36466 7.716 2.35788C7.70244 2.34431 7.68888 2.33075 7.66853 2.31718C7.66175 2.3104 7.64818 2.30362 7.6414 2.29684C7.62784 2.28327 7.61427 2.27649 7.60071 2.26293C7.58036 2.24936 7.56001 2.2358 7.54645 2.22901C7.53967 2.22223 7.53289 2.22223 7.5261 2.21545C7.49897 2.20189 7.46506 2.18832 7.43793 2.17476L2.43947 0.0722805C1.97149 -0.124403 1.4357 0.092627 1.23902 0.560598C1.04234 1.02857 1.25937 1.56436 1.72734 1.76104L6.16288 3.63293V7.78362V8.44149V13.4874V17.9976V23.6946C6.16288 25.5936 7.58714 27.1671 9.42511 27.4045C9.09279 27.9606 8.8961 28.6117 8.8961 29.3035C8.8961 31.3449 10.5577 32.9998 12.5924 32.9998C14.627 32.9998 16.2887 31.3381 16.2887 29.3035C16.2887 28.6253 16.1056 27.981 15.78 27.4384H24.0136C23.688 27.9877 23.5049 28.6253 23.5049 29.3035C23.5049 31.3449 25.1666 32.9998 27.2012 32.9998C29.2359 32.9998 30.8975 31.3381 30.8975 29.3035C30.8975 27.2688 29.2359 25.6072 27.2012 25.6072H9.90665C8.84863 25.6072 7.99407 24.7459 7.99407 23.6946V21.2123C8.55021 21.5379 9.20808 21.7278 9.90665 21.7278ZM14.4643 29.2967C14.4643 30.3276 13.6233 31.1618 12.5992 31.1618C11.5751 31.1618 10.7341 30.3208 10.7341 29.2967C10.7341 28.2726 11.5751 27.4316 12.5992 27.4316C13.6233 27.4316 14.4643 28.2658 14.4643 29.2967ZM29.0731 29.2967C29.0731 30.3276 28.2321 31.1618 27.208 31.1618C26.1839 31.1618 25.3429 30.3208 25.3429 29.2967C25.3429 28.2726 26.1839 27.4316 27.208 27.4316C28.2321 27.4316 29.0731 28.2658 29.0731 29.2967ZM28.0897 19.8966H9.90665C8.84863 19.8966 7.99407 19.0353 7.99407 17.984V13.4739V8.42793V8.08882L30.0023 11.1205V17.9772C30.0023 19.042 29.1409 19.8966 28.0897 19.8966Z" fill="#C4C4C4"/>
</g>
<defs>
<clipPath id="clip0_1_53">
<rect width="33" height="33" fill="white"/>
</clipPath>
</defs>
</svg>
